HIERARCHY
ROOT pelvis
{
  OFFSET 0 100 0
  CHANNELS 6 Xposition Yposition Zposition Zrotation Xrotation Yrotation
  JOINT pelvis_right_femur
  {
    OFFSET -10.78128 -3.44521 -0.5502486
    CHANNELS 3 Zrotation Xrotation Yrotation
    JOINT right_femur_tibia
    {
      OFFSET -0.8047443 -44.0398 -0.1307829
      CHANNELS 3 Zrotation Xrotation Yrotation
      JOINT right_tibia_foot
      {
        OFFSET 3.006224 -47.83518 -5
        CHANNELS 3 Zrotation Xrotation Yrotation
        End Site
        {
          OFFSET 0 -5 15
        }
      }
    }
  }
  JOINT pelvis_left_femur
  {
    OFFSET 10.78128 -3.44521 -0.5502486
    CHANNELS 3 Zrotation Xrotation Yrotation
    JOINT left_femur_tibia
    {
      OFFSET 0.8047443 -44.0398 -0.1307829
      CHANNELS 3 Zrotation Xrotation Yrotation
      JOINT left_tibia_foot
      {
        OFFSET -4.370144 -48.10324 -4.275266
        CHANNELS 3 Zrotation Xrotation Yrotation
        End Site
        {
          OFFSET 0 -5 15
        }
      }
    }
  }
  JOINT pelvis_spine1
  {
    OFFSET 0 6.468898 -3.129235
    CHANNELS 3 Zrotation Xrotation Yrotation
    JOINT spine1
    {
      OFFSET 0 23.15396 4.99043
      CHANNELS 3 Zrotation Xrotation Yrotation
      JOINT spine2
      {
        OFFSET 0 20.79997 -5.064912
        CHANNELS 3 Zrotation Xrotation Yrotation
        JOINT neck
        {
          OFFSET 0 14.38658 9.616178
          CHANNELS 3 Zrotation Xrotation Yrotation
          End Site
          {
            OFFSET 0 20 0
          }
        }
      }
      JOINT right_manubrium
      {
        OFFSET -5.722621 16.35077 3.967754
        CHANNELS 3 Zrotation Xrotation Yrotation
        JOINT right_clavicle
        {
          OFFSET -13.16364 1.694482 -4.693211
          CHANNELS 3 Zrotation Xrotation Yrotation
          JOINT right_humerus
          {
            OFFSET -28.5034 -0.3100689 -2.792744
            CHANNELS 3 Zrotation Xrotation Yrotation
            JOINT right_radius
            {
              OFFSET -25.15693 0.02248979 -1.271978
              CHANNELS 3 Zrotation Xrotation Yrotation
              End Site
              {
                OFFSET -15 0 0
              }
            }
          }
        }
      }
      JOINT left_manubrium
      {
        OFFSET 5.722621 16.35077 3.967754
        CHANNELS 3 Zrotation Xrotation Yrotation
        JOINT left_clavicle
        {
          OFFSET 13.16364 1.694482 -4.693211
          CHANNELS 3 Zrotation Xrotation Yrotation
          JOINT left_humerus
          {
            OFFSET 29.39168 -1.063119 -2.237045
            CHANNELS 3 Zrotation Xrotation Yrotation
            JOINT left_radius
            {
              OFFSET 24.59957 -0.9528479 0.9047498
              CHANNELS 3 Zrotation Xrotation Yrotation
              End Site
              {
                OFFSET 15 -0 -0
              }
            }
          }
        }
      }
    }
  }
}
MOTION
Frames: 23
Frame Time: 0.0416666666667
164.468 99.03447 220.8248 -2.924837 -1.063076 55.19525 9.132465 -23.94796 17.66092 -0 42.61195 -0 -5.508323 -21.45061 -6.458944 -4.84738 10.93442 -26.74965 -0 5.281047 -0 3.547496 -23.66439 28.22217 -2.180954 -2.099537 4.494412 3.332432 6.771229 -7.503487 3.517958 22.00431 6.20478 1.977779 -29.98475 13.28872 5.682699 -20.13106 9.95991 85.27616 35.20219 -19.32787 -0 0 18.17961 -0.1314453 9.102984 0.8819551 4.597138 -17.09012 2.035273 -106.506 40.1536 34.73015 0 0 -11.19778 -2.626919 20.98018 20.6332
164.9644 99.04344 221.0421 -2.922791 -1.068692 55.30523 9.132465 -23.94796 17.66092 -0 42.61195 -0 -5.508323 -21.45061 -6.458944 -4.84738 10.93442 -26.74965 -0 5.281047 -0 3.547496 -23.66439 28.22217 -2.180954 -2.099537 4.494412 3.332432 6.771229 -7.503487 3.517958 22.00431 6.20478 1.977779 -29.98475 13.28872 5.682699 -20.13106 9.95991 85.27616 35.20219 -19.32787 -0 0 18.17961 -0.1314453 9.102984 0.8819551 4.597138 -17.09012 2.035273 -106.506 40.1536 34.73015 0 0 -11.19778 -2.626919 20.98018 20.6332
165.4612 99.05241 221.2585 -2.920734 -1.074304 55.41522 9.132465 -23.94796 17.66092 -0 42.61195 -0 -5.508323 -21.45061 -6.458944 -4.84738 10.93442 -26.74965 -0 5.281047 -0 3.547496 -23.66439 28.22217 -2.180954 -2.099537 4.494412 3.332432 6.771229 -7.503487 3.517958 22.00431 6.20478 1.977779 -29.98475 13.28872 5.682699 -20.13106 9.95991 85.27616 35.20219 -19.32787 -0 0 18.17961 -0.1314453 9.102984 0.8819551 4.597138 -17.09012 2.035273 -106.506 40.1536 34.73015 0 0 -11.19778 -2.626919 20.98018 20.6332
165.9583 99.06138 221.4739 -2.918667 -1.079913 55.5252 9.132465 -23.94796 17.66092 -0 42.61195 -0 -5.508323 -21.45061 -6.458944 -4.84738 10.93442 -26.74965 -0 5.281047 -0 3.547496 -23.66439 28.22217 -2.180954 -2.099537 4.494412 3.332432 6.771229 -7.503487 3.517958 22.00431 6.20478 1.977779 -29.98475 13.28872 5.682699 -20.13106 9.95991 85.27616 35.20219 -19.32787 -0 0 18.17961 -0.1314453 9.102984 0.8819551 4.597138 -17.09012 2.035273 -106.506 40.1536 34.73015 0 0 -11.19778 -2.626919 20.98018 20.6332
166.4559 99.07035 221.6884 -2.916589 -1.085517 55.63518 9.132465 -23.94796 17.66092 -0 42.61195 -0 -5.508323 -21.45061 -6.458944 -4.84738 10.93442 -26.74965 -0 5.281047 -0 3.547496 -23.66439 28.22217 -2.180954 -2.099537 4.494412 3.332432 6.771229 -7.503487 3.517958 22.00431 6.20478 1.977779 -29.98475 13.28872 5.682699 -20.13106 9.95991 85.27616 35.20219 -19.32787 -0 0 18.17961 -0.1314453 9.102984 0.8819551 4.597138 -17.09012 2.035273 -106.506 40.1536 34.73015 0 0 -11.19778 -2.626919 20.98018 20.6332
166.9539 99.07932 221.9019 -2.9145 -1.091118 55.74517 9.132465 -23.94796 17.66092 -0 42.61195 -0 -5.508323 -21.45061 -6.458944 -4.84738 10.93442 -26.74965 -0 5.281047 -0 3.547496 -23.66439 28.22217 -2.180954 -2.099537 4.494412 3.332432 6.771229 -7.503487 3.517958 22.00431 6.20478 1.977779 -29.98475 13.28872 5.682699 -20.13106 9.95991 85.27616 35.20219 -19.32787 -0 0 18.17961 -0.1314453 9.102984 0.8819551 4.597138 -17.09012 2.035273 -106.506 40.1536 34.73015 0 0 -11.19778 -2.626919 20.98018 20.6332
167.4524 99.08829 222.1145 -2.9124 -1.096714 55.85515 9.132465 -23.94796 17.66092 -0 42.61195 -0 -5.508323 -21.45061 -6.458944 -4.84738 10.93442 -26.74965 -0 5.281047 -0 3.547496 -23.66439 28.22217 -2.180954 -2.099537 4.494412 3.332432 6.771229 -7.503487 3.517958 22.00431 6.20478 1.977779 -29.98475 13.28872 5.682699 -20.13106 9.95991 85.27616 35.20219 -19.32787 -0 0 18.17961 -0.1314453 9.102984 0.8819551 4.597138 -17.09012 2.035273 -106.506 40.1536 34.73015 0 0 -11.19778 -2.626919 20.98018 20.6332
167.9512 99.09727 222.3261 -2.910289 -1.102307 55.96514 9.132465 -23.94796 17.66092 -0 42.61195 -0 -5.508323 -21.45061 -6.458944 -4.84738 10.93442 -26.74965 -0 5.281047 -0 3.547496 -23.66439 28.22217 -2.180954 -2.099537 4.494412 3.332432 6.771229 -7.503487 3.517958 22.00431 6.20478 1.977779 -29.98475 13.28872 5.682699 -20.13106 9.95991 85.27616 35.20219 -19.32787 -0 0 18.17961 -0.1314453 9.102984 0.8819551 4.597138 -17.09012 2.035273 -106.506 40.1536 34.73015 0 0 -11.19778 -2.626919 20.98018 20.6332
168.4504 99.10624 222.5368 -2.908168 -1.107895 56.07513 9.132465 -23.94796 17.66092 -0 42.61195 -0 -5.508323 -21.45061 -6.458944 -4.84738 10.93442 -26.74965 -0 5.281047 -0 3.547496 -23.66439 28.22217 -2.180954 -2.099537 4.494412 3.332432 6.771229 -7.503487 3.517958 22.00431 6.20478 1.977779 -29.98475 13.28872 5.682699 -20.13106 9.95991 85.27616 35.20219 -19.32787 -0 0 18.17961 -0.1314453 9.102984 0.8819551 4.597138 -17.09012 2.035273 -106.506 40.1536 34.73015 0 0 -11.19778 -2.626919 20.98018 20.6332
168.95 99.11521 222.7464 -2.906036 -1.113479 56.18511 9.132465 -23.94796 17.66092 -0 42.61195 -0 -5.508323 -21.45061 -6.458944 -4.84738 10.93442 -26.74965 -0 5.281047 -0 3.547496 -23.66439 28.22217 -2.180954 -2.099537 4.494412 3.332432 6.771229 -7.503487 3.517958 22.00431 6.20478 1.977779 -29.98475 13.28872 5.682699 -20.13106 9.95991 85.27616 35.20219 -19.32787 -0 0 18.17961 -0.1314453 9.102984 0.8819551 4.597138 -17.09012 2.035273 -106.506 40.1536 34.73015 0 0 -11.19778 -2.626919 20.98018 20.6332
169.4501 99.12418 222.9552 -2.903893 -1.11906 56.2951 9.132465 -23.94796 17.66092 -0 42.61195 -0 -5.508323 -21.45061 -6.458944 -4.84738 10.93442 -26.74965 -0 5.281047 -0 3.547496 -23.66439 28.22217 -2.180954 -2.099537 4.494412 3.332432 6.771229 -7.503487 3.517958 22.00431 6.20478 1.977779 -29.98475 13.28872 5.682699 -20.13106 9.95991 85.27616 35.20219 -19.32787 -0 0 18.17961 -0.1314453 9.102984 0.8819551 4.597138 -17.09012 2.035273 -106.506 40.1536 34.73015 0 0 -11.19778 -2.626919 20.98018 20.6332
169.9505 99.13315 223.1629 -2.90174 -1.124636 56.40509 9.132465 -23.94796 17.66092 -0 42.61195 -0 -5.508323 -21.45061 -6.458944 -4.84738 10.93442 -26.74965 -0 5.281047 -0 3.547496 -23.66439 28.22217 -2.180954 -2.099537 4.494412 3.332432 6.771229 -7.503487 3.517958 22.00431 6.20478 1.977779 -29.98475 13.28872 5.682699 -20.13106 9.95991 85.27616 35.20219 -19.32787 -0 0 18.17961 -0.1314453 9.102984 0.8819551 4.597138 -17.09012 2.035273 -106.506 40.1536 34.73015 0 0 -11.19778 -2.626919 20.98018 20.6332
170.4513 99.14212 223.3697 -2.899576 -1.130208 56.51508 9.132465 -23.94796 17.66092 -0 42.61195 -0 -5.508323 -21.45061 -6.458944 -4.84738 10.93442 -26.74965 -0 5.281047 -0 3.547496 -23.66439 28.22217 -2.180954 -2.099537 4.494412 3.332432 6.771229 -7.503487 3.517958 22.00431 6.20478 1.977779 -29.98475 13.28872 5.682699 -20.13106 9.95991 85.27616 35.20219 -19.32787 -0 0 18.17961 -0.1314453 9.102984 0.8819551 4.597138 -17.09012 2.035273 -106.506 40.1536 34.73015 0 0 -11.19778 -2.626919 20.98018 20.6332
170.9526 99.1511 223.5756 -2.897401 -1.135776 56.62507 9.132465 -23.94796 17.66092 -0 42.61195 -0 -5.508323 -21.45061 -6.458944 -4.84738 10.93442 -26.74965 -0 5.281047 -0 3.547496 -23.66439 28.22217 -2.180954 -2.099537 4.494412 3.332432 6.771229 -7.503487 3.517958 22.00431 6.20478 1.977779 -29.98475 13.28872 5.682699 -20.13106 9.95991 85.27616 35.20219 -19.32787 -0 0 18.17961 -0.1314453 9.102984 0.8819551 4.597138 -17.09012 2.035273 -106.506 40.1536 34.73015 0 0 -11.19778 -2.626919 20.98018 20.6332
171.4542 99.16007 223.7804 -2.895216 -1.141339 56.73505 9.132465 -23.94796 17.66092 -0 42.61195 -0 -5.508323 -21.45061 -6.458944 -4.84738 10.93442 -26.74965 -0 5.281047 -0 3.547496 -23.66439 28.22217 -2.180954 -2.099537 4.494412 3.332432 6.771229 -7.503487 3.517958 22.00431 6.20478 1.977779 -29.98475 13.28872 5.682699 -20.13106 9.95991 85.27616 35.20219 -19.32787 -0 0 18.17961 -0.1314453 9.102984 0.8819551 4.597138 -17.09012 2.035273 -106.506 40.1536 34.73015 0 0 -11.19778 -2.626919 20.98018 20.6332
171.9562 99.16904 223.9844 -2.893019 -1.146898 56.84504 9.132465 -23.94796 17.66092 -0 42.61195 -0 -5.508323 -21.45061 -6.458944 -4.84738 10.93442 -26.74965 -0 5.281047 -0 3.547496 -23.66439 28.22217 -2.180954 -2.099537 4.494412 3.332432 6.771229 -7.503487 3.517958 22.00431 6.20478 1.977779 -29.98475 13.28872 5.682699 -20.13106 9.95991 85.27616 35.20219 -19.32787 -0 0 18.17961 -0.1314453 9.102984 0.8819551 4.597138 -17.09012 2.035273 -106.506 40.1536 34.73015 0 0 -11.19778 -2.626919 20.98018 20.6332
172.4586 99.17801 224.1873 -2.890813 -1.152454 56.95503 9.132465 -23.94796 17.66092 -0 42.61195 -0 -5.508323 -21.45061 -6.458944 -4.84738 10.93442 -26.74965 -0 5.281047 -0 3.547496 -23.66439 28.22217 -2.180954 -2.099537 4.494412 3.332432 6.771229 -7.503487 3.517958 22.00431 6.20478 1.977779 -29.98475 13.28872 5.682699 -20.13106 9.95991 85.27616 35.20219 -19.32787 -0 0 18.17961 -0.1314453 9.102984 0.8819551 4.597138 -17.09012 2.035273 -106.506 40.1536 34.73015 0 0 -11.19778 -2.626919 20.98018 20.6332
172.9614 99.18698 224.3893 -2.888595 -1.158005 57.06502 9.132465 -23.94796 17.66092 -0 42.61195 -0 -5.508323 -21.45061 -6.458944 -4.84738 10.93442 -26.74965 -0 5.281047 -0 3.547496 -23.66439 28.22217 -2.180954 -2.099537 4.494412 3.332432 6.771229 -7.503487 3.517958 22.00431 6.20478 1.977779 -29.98475 13.28872 5.682699 -20.13106 9.95991 85.27616 35.20219 -19.32787 -0 0 18.17961 -0.1314453 9.102984 0.8819551 4.597138 -17.09012 2.035273 -106.506 40.1536 34.73015 0 0 -11.19778 -2.626919 20.98018 20.6332
173.4646 99.19595 224.5903 -2.886367 -1.163551 57.17501 9.132465 -23.94796 17.66092 -0 42.61195 -0 -5.508323 -21.45061 -6.458944 -4.84738 10.93442 -26.74965 -0 5.281047 -0 3.547496 -23.66439 28.22217 -2.180954 -2.099537 4.494412 3.332432 6.771229 -7.503487 3.517958 22.00431 6.20478 1.977779 -29.98475 13.28872 5.682699 -20.13106 9.95991 85.27616 35.20219 -19.32787 -0 0 18.17961 -0.1314453 9.102984 0.8819551 4.597138 -17.09012 2.035273 -106.506 40.1536 34.73015 0 0 -11.19778 -2.626919 20.98018 20.6332
173.9682 99.20493 224.7903 -2.884128 -1.169094 57.285 9.132465 -23.94796 17.66092 -0 42.61195 -0 -5.508323 -21.45061 -6.458944 -4.84738 10.93442 -26.74965 -0 5.281047 -0 3.547496 -23.66439 28.22217 -2.180954 -2.099537 4.494412 3.332432 6.771229 -7.503487 3.517958 22.00431 6.20478 1.977779 -29.98475 13.28872 5.682699 -20.13106 9.95991 85.27616 35.20219 -19.32787 -0 0 18.17961 -0.1314453 9.102984 0.8819551 4.597138 -17.09012 2.035273 -106.506 40.1536 34.73015 0 0 -11.19778 -2.626919 20.98018 20.6332
174.4721 99.2139 224.9894 -2.881878 -1.174632 57.395 9.132465 -23.94796 17.66092 -0 42.61195 -0 -5.508323 -21.45061 -6.458944 -4.84738 10.93442 -26.74965 -0 5.281047 -0 3.547496 -23.66439 28.22217 -2.180954 -2.099537 4.494412 3.332432 6.771229 -7.503487 3.517958 22.00431 6.20478 1.977779 -29.98475 13.28872 5.682699 -20.13106 9.95991 85.27616 35.20219 -19.32787 -0 0 18.17961 -0.1314453 9.102984 0.8819551 4.597138 -17.09012 2.035273 -106.506 40.1536 34.73015 0 0 -11.19778 -2.626919 20.98018 20.6332
174.9764 99.22287 225.1875 -2.879618 -1.180165 57.50499 9.132465 -23.94796 17.66092 -0 42.61195 -0 -5.508323 -21.45061 -6.458944 -4.84738 10.93442 -26.74965 -0 5.281047 -0 3.547496 -23.66439 28.22217 -2.180954 -2.099537 4.494412 3.332432 6.771229 -7.503487 3.517958 22.00431 6.20478 1.977779 -29.98475 13.28872 5.682699 -20.13106 9.95991 85.27616 35.20219 -19.32787 -0 0 18.17961 -0.1314453 9.102984 0.8819551 4.597138 -17.09012 2.035273 -106.506 40.1536 34.73015 0 0 -11.19778 -2.626919 20.98018 20.6332
175.4812 99.23184 225.3847 -2.877348 -1.185695 57.61498 9.132465 -23.94796 17.66092 -0 42.61195 -0 -5.508323 -21.45061 -6.458944 -4.84738 10.93442 -26.74965 -0 5.281047 -0 3.547496 -23.66439 28.22217 -2.180954 -2.099537 4.494412 3.332432 6.771229 -7.503487 3.517958 22.00431 6.20478 1.977779 -29.98475 13.28872 5.682699 -20.13106 9.95991 85.27616 35.20219 -19.32787 -0 0 18.17961 -0.1314453 9.102984 0.8819551 4.597138 -17.09012 2.035273 -106.506 40.1536 34.73015 0 0 -11.19778 -2.626919 20.98018 20.6332
